<?xml version="1.0" encoding="UTF-8"?>
<svg xmlns="http://www.w3.org/2000/svg" xmlns:xlink="http://www.w3.org/1999/xlink" width="140" height="1200" viewBox="0 0 140 1200" preserveAspectRatio="xMidYMin meet">
  <!-- Palette
       Sage: #A3B3B0 (#sage-1), #B8BAB7 (#sage-2), #AFB6AA (#sage-3)
       Peach: #F9B69F (#peach-1), #FBC4B1 (#peach-2), #FCD3C1 (#peach-3)
  -->
  <defs>
    <!-- Subtle top-dense fade to create taper towards bottom -->
    <linearGradient id="fade" x1="0" y1="0" x2="0" y2="1">
      <stop offset="0%" stop-color="#fff" stop-opacity="1"/>
      <stop offset="60%" stop-color="#fff" stop-opacity="0.9"/>
      <stop offset="80%" stop-color="#fff" stop-opacity="0.35"/>
      <stop offset="100%" stop-color="#fff" stop-opacity="0"/>
    </linearGradient>
    <mask id="fadeMask" maskUnits="userSpaceOnUse" maskContentUnits="userSpaceOnUse">
      <rect x="0" y="0" width="140" height="1200" fill="url(#fade)"/>
    </mask>
    <filter id="soft" x="-20%" y="-20%" width="140%" height="140%">
      <feGaussianBlur in="SourceGraphic" stdDeviation="0.4"/>
    </filter>
    <g id="leaf">
      <!-- Rounded leaf -->
      <ellipse cx="0" cy="0" rx="9" ry="5.5" fill="#B8BAB7" stroke="#A3B3B0" stroke-width="1.2"/>
    </g>
    <g id="smallLeaf">
      <ellipse cx="0" cy="0" rx="6" ry="4" fill="#AFB6AA" stroke="#A3B3B0" stroke-width="1"/>
    </g>
    <g id="daisy">
      <!-- Daisy-like flower: light peach petals with outline -->
      <g filter="url(#soft)">
        <circle cx="0" cy="0" r="2.6" fill="#F9B69F"/>
      </g>
      <!-- Petals -->
      <g stroke="#F9B69F" stroke-width="0.8" fill="#FCD3C1">
        <ellipse cx="0" cy="-7" rx="3.2" ry="6.2"/>
        <ellipse cx="6" cy="-4" rx="3.2" ry="6.2" transform="rotate(30)"/>
        <ellipse cx="7" cy="0" rx="3.2" ry="6.2" transform="rotate(60)"/>
        <ellipse cx="6" cy="4" rx="3.2" ry="6.2" transform="rotate(90)"/>
        <ellipse cx="0" cy="7" rx="3.2" ry="6.2" transform="rotate(120)"/>
        <ellipse cx="-6" cy="4" rx="3.2" ry="6.2" transform="rotate(150)"/>
        <ellipse cx="-7" cy="0" rx="3.2" ry="6.2" transform="rotate(180)"/>
        <ellipse cx="-6" cy="-4" rx="3.2" ry="6.2" transform="rotate(210)"/>
      </g>
      <circle cx="0" cy="0" r="2.2" fill="#FBC4B1" stroke="#F9B69F" stroke-width="0.8"/>
    </g>
  </defs>

  <g mask="url(#fadeMask)">
    <!-- Main vine stem: slightly winding path down the canvas -->
    <path d="M 70 0 C 65 70, 90 130, 60 200 C 30 280, 85 360, 55 440 C 30 510, 90 580, 60 650 C 40 700, 80 760, 58 820 C 40 870, 75 930, 55 1000 C 40 1050, 70 1120, 60 1200"
          fill="none" stroke="#AFB6AA" stroke-width="3.2"/>

    <!-- Leaves: denser near top, sparser toward bottom -->
    <!-- Top cluster -->
    <g>
      <use href="#leaf" x="58" y="40" transform="rotate(-20 58 40)"/>
      <use href="#leaf" x="82" y="60" transform="rotate(30 82 60)"/>
      <use href="#leaf" x="50" y="85" transform="rotate(-10 50 85)"/>
      <use href="#leaf" x="88" y="110" transform="rotate(45 88 110)"/>
      <use href="#leaf" x="48" y="130" transform="rotate(-35 48 130)"/>
      <use href="#smallLeaf" x="76" y="150" transform="rotate(25 76 150)"/>
      <use href="#smallLeaf" x="60" y="170" transform="rotate(-5 60 170)"/>
      <use href="#smallLeaf" x="86" y="185" transform="rotate(35 86 185)"/>
    </g>

    <!-- Upper-mid -->
    <g>
      <use href="#leaf" x="54" y="220" transform="rotate(-20 54 220)"/>
      <use href="#leaf" x="84" y="255" transform="rotate(30 84 255)"/>
      <use href="#smallLeaf" x="62" y="285" transform="rotate(-8 62 285)"/>
      <use href="#smallLeaf" x="80" y="310" transform="rotate(22 80 310)"/>
      <use href="#leaf" x="52" y="340" transform="rotate(-18 52 340)"/>
      <use href="#smallLeaf" x="86" y="365" transform="rotate(35 86 365)"/>
    </g>

    <!-- Mid -->
    <g>
      <use href="#leaf" x="58" y="420" transform="rotate(-12 58 420)"/>
      <use href="#smallLeaf" x="80" y="455" transform="rotate(18 80 455)"/>
      <use href="#smallLeaf" x="54" y="490" transform="rotate(-16 54 490)"/>
      <use href="#leaf" x="84" y="525" transform="rotate(28 84 525)"/>
    </g>

    <!-- Lower-mid (sparser) -->
    <g>
      <use href="#smallLeaf" x="58" y="600" transform="rotate(-10 58 600)"/>
      <use href="#leaf" x="82" y="640" transform="rotate(26 82 640)"/>
      <use href="#smallLeaf" x="54" y="685" transform="rotate(-12 54 685)"/>
      <use href="#smallLeaf" x="80" y="730" transform="rotate(20 80 730)"/>
    </g>

    <!-- Bottom (taper) -->
    <g>
      <use href="#smallLeaf" x="60" y="790" transform="rotate(-8 60 790)"/>
      <use href="#smallLeaf" x="78" y="860" transform="rotate(16 78 860)"/>
      <use href="#smallLeaf" x="62" y="940" transform="rotate(-12 62 940)"/>
      <use href="#smallLeaf" x="74" y="1020" transform="rotate(10 74 1020)"/>
    </g>

    <!-- Daisy accents near top/upper-mid -->
    <g>
      <use href="#daisy" x="34" y="70"/>
      <use href="#daisy" x="104" y="125"/>
      <use href="#daisy" x="38" y="205"/>
      <use href="#daisy" x="98" y="300"/>
    </g>
  </g>
</svg>
